Coordinates
version=1
nRows=11
nColumns=63
inDegrees=yes

Units are S.I. units (second, meters, Newtons, ...)
If the header above contains a line with 'inDegrees', this indicates whether rotational values are in degrees (yes) or radians (no).

endheader
time	pelvis_tilt	pelvis_list	pelvis_rotation	pelvis_tx	pelvis_ty	pelvis_tz	hip_flexion_r	hip_adduction_r	hip_rotation_r	knee_angle_r	knee_angle_r_beta	ankle_angle_r	subtalar_angle_r	mtp_angle_r	hip_flexion_l	hip_adduction_l	hip_rotation_l	knee_angle_l	knee_angle_l_beta	ankle_angle_l	subtalar_angle_l	mtp_angle_l	L5_S1_Flex_Ext	L5_S1_Lat_Bending	L5_S1_axial_rotation	L4_L5_Flex_Ext	L4_L5_Lat_Bending	L4_L5_axial_rotation	L3_L4_Flex_Ext	L3_L4_Lat_Bending	L3_L4_axial_rotation	L2_L3_Flex_Ext	L2_L3_Lat_Bending	L2_L3_axial_rotation	L1_L2_Flex_Ext	L1_L2_Lat_Bending	L1_L2_axial_rotation	L1_T12_Flex_Ext	L1_T12_Lat_Bending	L1_T12_axial_rotation	Abs_r3	Abs_r2	Abs_r1	Abs_t1	Abs_t2	neck_flexion	neck_bending	neck_rotation	arm_flex_r	arm_add_r	arm_rot_r	elbow_flex_r	pro_sup_r	wrist_flex_r	wrist_dev_r	arm_flex_l	arm_add_l	arm_rot_l	elbow_flex_l	pro_sup_l	wrist_flex_l	wrist_dev_l
0.000000	1.063416	-4.430436	98.179006	0.268923	0.678382	0.947718	6.199674	0.384374	-3.321360	8.592693	0.149971	18.782150	-0.783054	0.000000	6.263860	-2.102071	-7.898096	8.225144	0.143556	22.350909	9.290367	0.000000	0.227581	0.161950	-0.167509	0.422640	0.215394	-0.177978	0.373892	0.393765	-0.177978	0.260102	0.393765	-0.146570	0.211331	0.330249	-0.136101	0.130040	0.250861	-0.125631	1.625585	1.832012	-0.931632	0.000000	0.000000	27.319036	-4.100126	-0.884180	20.827635	-4.867513	78.686510	32.016804	46.622145	11.816662	-0.010080	21.952649	-8.484382	89.269352	40.903786	18.637108	-4.749332	-6.964354
0.017857	1.402079	-4.267980	98.319014	0.268653	0.678181	0.946812	5.884887	0.789926	-3.323703	8.259143	0.144149	18.638337	-1.170324	0.000000	6.097517	-2.522519	-8.504881	8.414651	0.146863	22.523979	10.444868	0.000000	0.218773	0.204033	-0.207857	0.406283	0.271364	-0.220848	0.359422	0.496087	-0.220848	0.250036	0.496087	-0.181875	0.203153	0.416065	-0.168884	0.125007	0.316048	-0.155893	1.562674	2.308066	-1.156039	0.000000	0.000000	27.314079	-4.218473	-0.928843	20.896152	-4.910267	78.229634	32.184204	59.721782	10.005458	-1.719302	21.870287	-8.420410	89.302226	41.049465	16.666109	-4.978429	-6.061394
0.035714	1.645209	-4.166080	98.362495	0.268486	0.677989	0.946168	5.698108	1.072990	-3.391392	8.039935	0.140323	18.607552	-1.309437	0.000000	5.986355	-2.821950	-8.869993	8.525787	0.148803	22.674207	11.186591	0.000000	0.213811	0.233783	-0.216303	0.397068	0.310932	-0.229821	0.351270	0.568420	-0.229821	0.244364	0.568420	-0.189265	0.198545	0.476731	-0.175746	0.122172	0.362130	-0.162227	1.527229	2.644602	-1.203010	0.000000	0.000000	27.318385	-4.338755	-1.067008	20.916147	-4.978709	77.803001	32.340581	69.075084	8.685907	-2.888103	21.797991	-8.338690	89.227698	41.131931	15.378881	-5.151361	-5.316958
0.053571	1.802669	-4.117529	98.322201	0.268411	0.677806	0.945757	5.622891	1.246728	-3.515826	7.919941	0.138229	18.675800	-1.228889	0.000000	5.923701	-3.012976	-9.017854	8.567793	0.149536	22.801895	11.558072	0.000000	0.212270	0.252467	-0.197069	0.394207	0.335781	-0.209385	0.348739	0.613849	-0.209385	0.242604	0.613849	-0.172435	0.197114	0.514831	-0.160118	0.121291	0.391072	-0.147801	1.516224	2.855958	-1.096037	0.000000	0.000000	27.330697	-4.457680	-1.282414	20.891426	-5.068016	77.399649	32.486004	75.101446	7.804122	-3.578043	21.736493	-8.242876	89.065924	41.159501	14.691449	-5.272413	-4.719006
0.071429	1.884326	-4.115122	98.210886	0.268420	0.677634	0.945547	5.642788	1.324300	-3.688400	7.884033	0.137602	18.829089	-0.957176	0.000000	5.902882	-3.108206	-8.972886	8.549907	0.149224	22.907341	11.601845	0.000000	0.213727	0.261353	-0.154379	0.396912	0.347599	-0.164028	0.351132	0.635453	-0.164028	0.244269	0.635453	-0.135082	0.198467	0.532950	-0.125433	0.122124	0.404835	-0.115784	1.526631	2.956473	-0.858610	0.000000	0.000000	27.349762	-4.571954	-1.558798	20.825794	-5.173369	77.012616	32.620539	78.220266	7.306213	-3.850683	21.686522	-8.136618	88.837063	41.140490	14.519838	-5.345869	-4.255501
0.089286	1.900041	-4.151652	98.041302	0.268502	0.677476	0.945510	5.741352	1.318867	-3.900511	7.917083	0.138179	19.053425	-0.522795	0.000000	5.917224	-3.120249	-8.759511	8.481371	0.148028	22.990845	11.360444	0.000000	0.217757	0.261707	-0.092458	0.404397	0.348071	-0.098236	0.357754	0.636315	-0.098236	0.248875	0.636315	-0.080901	0.202210	0.533673	-0.075122	0.124427	0.405384	-0.069343	1.555420	2.960484	-0.514222	0.000000	0.000000	27.374324	-4.678285	-1.879898	20.723056	-5.289948	76.634940	32.744252	78.850937	7.138292	-3.767584	21.648809	-8.023568	88.561271	41.083217	14.780075	-5.376015	-3.914402
0.107143	1.859680	-4.219914	97.826201	0.268646	0.677333	0.945614	5.902137	1.243590	-4.143556	8.003963	0.139696	19.334813	0.045759	0.000000	5.960054	-3.061717	-8.402151	8.371423	0.146109	23.052706	10.876405	0.000000	0.223938	0.254798	-0.015528	0.415874	0.338882	-0.016499	0.367907	0.619517	-0.016499	0.255938	0.619517	-0.013587	0.207948	0.519585	-0.012617	0.127958	0.394683	-0.011646	1.599563	2.882331	-0.086364	0.000000	0.000000	27.403128	-4.773379	-2.229454	20.587018	-5.412930	76.259659	32.857211	77.412857	7.246471	-3.390308	21.624084	-7.907378	88.258705	40.995996	15.388186	-5.367134	-3.683671
0.125000	1.773107	-4.312702	97.578336	0.268843	0.677208	0.945830	6.108696	1.111629	-4.408931	8.129546	0.141887	19.659261	0.719989	0.000000	6.024700	-2.945218	-7.925229	8.229303	0.143628	23.093224	10.192263	0.000000	0.231843	0.241894	0.072185	0.430556	0.321719	0.076697	0.380895	0.588141	0.076697	0.264974	0.588141	0.063162	0.215290	0.493270	0.058651	0.132475	0.374693	0.054139	1.656034	2.736351	0.401474	0.000000	0.000000	27.434919	-4.853944	-2.591203	20.421485	-5.537496	75.879811	32.959482	74.325422	7.576861	-2.780413	21.613078	-7.791700	87.949523	40.887145	16.260194	-5.323512	-3.551269
0.142857	1.650185	-4.422810	97.310459	0.269083	0.677101	0.946128	6.344581	0.936146	-4.688034	8.278704	0.144491	20.012774	1.471400	0.000000	6.104487	-2.783362	-7.353166	8.064252	0.140748	23.112699	9.350551	0.000000	0.241051	0.224261	0.166460	0.447656	0.298267	0.176864	0.396022	0.545268	0.176864	0.275497	0.545268	0.145652	0.223840	0.457313	0.135249	0.137736	0.347380	0.124845	1.721802	2.536883	0.925800	0.000000	0.000000	27.468441	-4.916686	-2.948883	20.230263	-5.658825	75.488434	33.051132	70.008026	8.075574	-1.999462	21.616520	-7.680186	87.653882	40.764979	17.312127	-5.249434	-3.505158
0.160714	1.500779	-4.543032	97.035323	0.269356	0.677016	0.946477	6.593346	0.730302	-4.972259	8.436308	0.147241	20.381359	2.271495	0.000000	6.192743	-2.588760	-6.710385	7.885509	0.137628	23.111430	8.393806	0.000000	0.251136	0.203167	0.263071	0.466385	0.270212	0.279513	0.412592	0.493980	0.279513	0.287024	0.493980	0.230187	0.233205	0.414298	0.213745	0.143499	0.314706	0.197303	1.793840	2.298265	1.463123	0.000000	0.000000	27.502441	-4.958313	-3.286234	20.017157	-5.772095	75.078566	33.132228	64.880066	8.688721	-1.109015	21.635141	-7.576487	87.391939	40.637817	18.460009	-5.149183	-3.533298
0.178571	1.334753	-4.666162	96.765682	0.269650	0.676953	0.946848	6.838545	0.507256	-5.253005	8.587232	0.149875	20.751022	3.091778	0.000000	6.282794	-2.374021	-6.021307	7.702313	0.134431	23.089717	7.364561	0.000000	0.261675	0.179880	0.357795	0.485957	0.239240	0.380158	0.429906	0.437360	0.380158	0.299069	0.437360	0.313071	0.242992	0.366811	0.290709	0.149521	0.278634	0.268347	1.869121	2.034836	1.989951	0.000000	0.000000	27.535662	-4.975531	-3.586992	19.785973	-5.872488	74.643245	33.202837	59.360938	9.362413	-0.170632	21.669672	-7.484255	87.183851	40.513973	19.619866	-5.027045	-3.623651
